<?xml version="1.0" standalone="no"?>
<!DOCTYPE svg PUBLIC "-//W3C//DTD SVG 20010904//EN"
 "http://www.w3.org/TR/2001/REC-SVG-20010904/DTD/svg10.dtd">
<svg version="1.0" xmlns="http://www.w3.org/2000/svg"
 width="3996.000000pt" height="3996.000000pt" viewBox="0 0 3996.000000 3996.000000"
 preserveAspectRatio="xMidYMid meet">
<metadata>
Created by potrace 1.14, written by Peter Selinger 2001-2017
</metadata>
<g transform="translate(0.000000,3996.000000) scale(0.100000,-0.100000)"
fill="#000000" stroke="none">
<path d="M0 19980 l0 -19980 5468 0 c4240 0 5471 3 5480 12 9 9 12 9 12 0 0
-9 3229 -12 14500 -12 l14500 0 0 19980 0 19980 -19980 0 -19980 0 0 -19980z
m21682 4133 c24 -9 67 -31 96 -50 47 -29 52 -36 52 -68 0 -37 -4 -43 -85 -104
-54 -40 -104 -120 -124 -198 -7 -24 -17 -43 -23 -43 -6 0 -36 18 -65 41 -30
22 -56 39 -58 37 -2 -1 -10 -31 -19 -64 -19 -73 -21 -181 -4 -236 10 -33 9
-41 -3 -49 -30 -19 -44 -5 -52 56 -9 66 -20 85 -48 85 -21 0 -31 -14 -33 -44
-1 -18 -12 -23 -75 -35 l-74 -14 -19 26 c-22 31 -40 34 -59 11 -11 -13 -10
-26 4 -79 23 -86 23 -87 -20 -83 -37 3 -38 4 -44 53 -4 28 -12 64 -18 80 -11
27 -110 185 -116 185 -2 0 -22 -30 -45 -67 l-42 -67 -26 35 c-70 92 -149 143
-241 155 -43 6 -54 11 -66 35 -23 43 -19 59 30 121 63 81 154 138 220 138 13
0 48 -13 78 -29 l55 -29 23 50 c13 27 30 53 39 58 8 5 96 25 193 45 197 40
191 41 258 -22 l26 -24 28 36 c42 56 80 75 152 75 35 0 82 -7 105 -17z m-352
-753 c0 -13 -9 -22 -27 -26 -16 -3 -45 -10 -66 -15 -42 -11 -60 -5 -55 19 2
11 21 20 58 28 81 17 90 17 90 -6z m184 -107 c24 -26 42 -51 40 -55 -15 -25
-115 5 -128 37 -10 27 -7 53 7 58 26 11 37 5 81 -40z m-164 -2 c0 -5 3 -22 6
-39 6 -29 4 -30 -35 -37 -48 -8 -51 -11 -44 -49 6 -27 8 -28 48 -22 31 4 45 2
48 -8 6 -16 -11 -36 -31 -36 -9 0 -12 -10 -10 -32 2 -27 8 -34 30 -36 28 -3
29 -7 43 -98 7 -48 -7 -65 -57 -67 l-33 -2 -52 200 c-28 110 -52 203 -52 207
-1 8 71 25 112 27 15 1 27 -3 27 -8z m-210 -47 c7 -17 6 -32 -1 -45 -12 -24
-67 -59 -91 -59 -15 0 -14 7 9 58 36 79 65 95 83 46z m130 -384 c0 -26 -74 0
-91 31 -10 19 -9 25 7 36 17 13 22 10 52 -21 17 -20 32 -40 32 -46z m1848
-1809 c119 -115 231 -224 249 -243 29 -29 122 -216 123 -244 0 -7 -20 -8 -62
-3 -190 22 -587 27 -754 9 -248 -27 -432 -70 -744 -175 -107 -36 -240 -79
-295 -95 -55 -16 -121 -36 -147 -44 -27 -8 -48 -13 -48 -11 0 2 44 38 98 81
53 43 131 108 173 145 148 132 452 369 631 490 100 68 200 137 222 152 23 16
91 53 151 82 99 48 128 59 173 64 8 0 111 -93 230 -208z m-6001 -422 c53 -59
195 -176 409 -336 101 -76 184 -140 184 -143 0 -3 -21 -14 -47 -25 -26 -11
-51 -21 -55 -23 -4 -2 -8 6 -8 18 0 33 39 42 -995 -218 -474 -120 -818 -202
-838 -202 -1 0 -3 80 -3 178 l-2 177 262 129 c336 166 1018 481 1049 485 4 1
24 -18 44 -40z m6058 -139 c94 -6 247 -19 340 -30 94 -10 197 -22 230 -26 42
-5 93 -22 170 -59 99 -47 286 -115 318 -115 8 0 23 -61 45 -177 37 -201 37
-203 18 -203 -25 0 -93 -76 -111 -125 -17 -44 -18 -60 -6 -236 7 -104 10 -235
6 -292 -8 -122 -42 -397 -56 -449 -9 -35 -13 -38 -45 -38 l-35 0 6 53 c12 98
21 332 18 462 -6 232 -41 422 -114 615 -60 158 -86 205 -148 269 -132 137
-322 220 -571 251 -103 12 -352 13 -440 0 -181 -25 -284 -43 -374 -66 -349
-87 -544 -211 -641 -407 -127 -258 -50 -853 169 -1302 57 -116 153 -269 217
-346 22 -26 39 -51 39 -56 0 -5 -20 -23 -45 -41 l-45 -32 -39 50 c-54 68 -208
299 -268 400 -104 178 -147 291 -229 605 -96 368 -144 478 -228 519 -92 45
-238 8 -293 -75 -51 -77 -99 -268 -149 -584 -65 -418 -128 -654 -231 -859 -14
-28 -57 -105 -96 -171 -192 -325 -567 -561 -1013 -636 -378 -63 -874 53 -1124
263 -289 242 -509 616 -565 958 -23 144 -63 409 -79 525 -8 61 -20 127 -26
147 -18 64 -86 154 -146 193 l-56 37 6 107 c3 58 9 172 12 253 l6 146 79 36
c43 20 85 36 92 36 8 0 66 -34 128 -76 63 -42 149 -96 192 -121 l77 -45 -34
-39 c-106 -116 -162 -334 -153 -594 7 -226 74 -627 133 -805 104 -312 321
-617 539 -760 142 -92 303 -159 435 -180 233 -36 630 44 810 163 36 24 100 65
142 91 173 105 380 304 486 467 34 52 71 106 82 121 37 48 99 202 125 309 29
120 42 244 51 472 5 152 -9 554 -22 624 -6 30 -4 33 102 104 60 40 181 126
269 192 l160 120 92 8 c243 21 462 85 651 193 84 47 115 59 233 85 320 71 571
91 904 71z m150 -202 c215 -42 362 -131 460 -277 85 -129 147 -316 176 -531
14 -107 17 -422 5 -611 l-8 -126 -46 -7 c-344 -46 -527 -85 -799 -172 -205
-66 -525 -185 -668 -248 -27 -13 -73 -33 -102 -46 -42 -19 -55 -21 -67 -11
-15 12 -131 177 -152 216 -6 11 -26 45 -44 75 -119 199 -227 536 -260 810 -7
52 -10 172 -8 265 3 153 6 175 27 223 53 118 145 209 281 277 179 90 377 138
650 160 107 9 231 19 275 24 95 10 146 6 280 -21z m-5809 -310 c-3 -29 -7
-140 -8 -247 -2 -244 12 -223 -183 -256 -271 -46 -1655 -325 -1937 -390 -45
-10 -58 -10 -58 -1 0 6 28 48 61 91 93 121 172 242 217 331 l40 80 179 38
c277 59 405 90 1048 252 330 83 611 152 624 152 22 2 23 0 17 -50z m847 -229
c56 -27 120 -59 141 -71 68 -36 325 -128 485 -174 10 -3 11 -14 6 -42 -4 -20
-8 -39 -10 -41 -2 -2 -17 6 -33 18 -41 29 -210 109 -247 116 -28 6 -27 5 13
-22 25 -16 40 -33 37 -41 -23 -60 -9 -89 15 -32 7 17 14 30 17 30 4 0 215
-110 222 -116 2 -2 5 -28 5 -58 1 -47 -2 -56 -21 -65 -12 -6 -29 -21 -38 -34
-15 -23 -19 -24 -58 -15 -47 10 -216 66 -292 97 -27 10 -77 30 -110 42 -33 13
-82 39 -110 59 -27 20 -70 44 -95 53 l-45 18 39 -37 c22 -21 31 -34 20 -30
-35 13 -154 45 -154 41 0 -9 97 -53 228 -105 74 -29 147 -64 163 -78 39 -32
69 -92 69 -136 0 -39 12 -49 72 -60 39 -7 41 -14 15 -62 l-16 -31 -118 29
c-68 16 -158 31 -213 33 -94 5 -94 5 -60 -11 19 -9 122 -35 228 -57 l193 -42
-120 -60 c-66 -33 -130 -68 -143 -78 l-23 -18 25 6 c14 4 88 37 164 75 153 75
167 76 199 21 l18 -31 -27 -10 c-20 -8 -29 -8 -34 0 -5 8 -9 7 -13 -2 -6 -18
-75 -43 -282 -103 -88 -26 -164 -51 -169 -55 -5 -5 -15 -6 -22 -3 -8 3 -14 1
-14 -5 0 -6 -10 -8 -22 -5 -13 3 -19 2 -15 -3 4 -4 -3 -14 -15 -21 -13 -7 -17
-12 -10 -13 26 0 242 51 348 83 l112 34 11 -55 c15 -73 15 -69 -19 -87 -41
-21 -43 -20 -37 21 6 36 6 36 -13 19 -11 -10 -20 -29 -20 -42 0 -25 -4 -27
-150 -89 -25 -10 -84 -38 -132 -61 l-87 -42 -31 95 c-16 52 -30 105 -30 118 0
13 -6 42 -14 64 -8 22 -31 157 -51 299 -35 245 -36 263 -26 369 13 133 41 244
85 339 29 63 73 114 99 115 5 0 54 -23 110 -51z m2322 -215 l7 -91 -63 -16
c-44 -11 -66 -13 -70 -5 -5 7 -30 7 -85 0 -43 -6 -80 -9 -82 -7 -3 2 10 22 28
45 l32 40 73 0 c41 0 76 4 80 9 8 13 -58 25 -100 18 l-33 -5 23 39 c16 30 42
51 96 82 l74 42 7 -30 c3 -16 10 -71 13 -121z m662 88 c37 -37 99 -213 159
-447 25 -99 56 -215 70 -258 13 -43 24 -98 24 -122 0 -23 9 -87 20 -142 40
-201 156 -370 303 -443 39 -19 77 -47 93 -67 14 -19 24 -36 22 -38 -2 -2 -68
-37 -148 -77 -166 -84 -315 -179 -412 -262 -124 -105 -101 -101 145 23 127 64
275 136 327 158 175 75 294 130 460 211 91 44 226 105 300 137 74 31 171 73
215 92 236 103 304 125 500 159 334 58 877 69 1155 24 30 -5 73 -12 95 -15
235 -34 507 -92 561 -120 16 -8 37 -15 46 -15 10 0 32 -6 50 -14 18 -8 83 -33
143 -56 205 -77 390 -151 495 -198 l104 -47 -99 -12 c-301 -36 -723 -129 -990
-218 -580 -192 -948 -387 -1425 -756 -58 -44 -121 -93 -140 -107 -19 -15 -89
-70 -155 -123 -66 -53 -140 -109 -165 -125 -50 -32 -210 -195 -171 -174 50 26
275 173 656 427 439 293 536 353 750 464 282 146 589 262 938 354 293 77 656
138 898 151 l127 7 83 -47 c244 -136 419 -274 687 -539 388 -384 503 -538 854
-1147 225 -388 303 -533 290 -538 -5 -1 -35 10 -68 26 -344 168 -867 222
-1429 148 -454 -60 -847 -166 -1290 -348 -63 -26 -425 -205 -570 -283 -171
-90 -564 -316 -571 -326 -10 -17 204 73 681 286 416 185 546 238 785 320 816
279 1620 341 2163 164 112 -36 273 -114 344 -166 52 -37 53 -40 92 -158 156
-480 169 -1091 41 -1830 -16 -93 -15 -92 -63 -48 -116 107 -366 213 -687 291
-158 39 -281 60 -495 87 -246 30 -399 38 -655 32 -288 -6 -603 -39 -735 -77
-16 -5 -57 -14 -90 -20 -434 -81 -1052 -346 -1428 -611 -177 -126 -496 -400
-722 -623 l-80 -78 77 53 c42 30 190 140 330 245 421 317 538 392 843 540 503
243 916 367 1435 431 204 25 712 25 925 0 482 -57 779 -131 1043 -260 70 -34
124 -69 167 -109 34 -32 68 -58 74 -58 6 0 11 -8 11 -19 0 -26 -112 -471 -155
-616 -19 -66 -35 -126 -35 -135 0 -8 -7 -28 -15 -44 -9 -16 -51 -137 -94 -270
-43 -133 -84 -253 -89 -268 l-11 -27 -53 23 c-188 82 -500 128 -873 129 -541
0 -1109 -106 -1585 -295 -296 -117 -849 -376 -823 -385 11 -4 370 114 768 252
623 216 1105 307 1630 308 225 0 374 -12 550 -44 170 -31 335 -85 335 -109 0
-10 -85 -228 -205 -525 -83 -206 -99 -242 -195 -445 -48 -102 -98 -207 -110
-235 -148 -327 -200 -439 -208 -447 -7 -7 -34 -3 -84 12 -383 117 -839 146
-1323 85 -104 -14 -199 -27 -210 -29 -11 -3 -49 -10 -85 -16 -605 -106 -1344
-406 -1860 -755 -169 -115 -359 -255 -344 -255 10 0 87 43 344 191 306 177
690 351 1124 511 388 143 886 251 1251 273 55 3 128 8 163 10 102 8 419 -14
574 -40 125 -21 287 -67 369 -105 l26 -12 -22 -46 c-12 -26 -42 -87 -65 -137
-23 -49 -65 -136 -92 -193 -66 -141 -99 -211 -214 -467 -54 -121 -102 -221
-106 -223 -5 -2 -8 -8 -8 -14 0 -15 -147 -344 -185 -414 -18 -33 -43 -93 -56
-133 -18 -56 -26 -70 -39 -65 -114 48 -347 113 -500 138 -273 47 -633 47 -900
2 -538 -92 -984 -265 -1369 -533 -107 -75 -534 -414 -547 -434 -11 -18 99 44
411 230 457 274 734 401 1108 507 189 53 411 98 565 115 182 19 543 7 722 -24
231 -41 480 -125 480 -162 0 -8 -6 -34 -14 -57 -124 -382 -238 -885 -266
-1173 -18 -182 -13 -172 -63 -132 -144 117 -381 209 -612 238 -145 18 -629 15
-835 -5 -488 -48 -786 -129 -1115 -300 -164 -86 -378 -210 -367 -214 11 -3
163 47 342 113 316 117 482 163 762 210 327 56 673 81 968 71 301 -10 463 -45
640 -137 69 -36 108 -64 218 -160 l33 -29 9 -347 c9 -352 21 -472 66 -668 43
-188 147 -520 205 -657 15 -38 26 -68 24 -68 -3 0 -38 11 -78 25 -137 46 -242
58 -447 52 -267 -8 -427 -46 -645 -153 -149 -73 -279 -168 -410 -299 -99 -99
-234 -258 -244 -288 -5 -14 74 50 236 191 202 176 442 323 628 384 266 88 693
111 915 51 l65 -18 43 -85 c70 -136 131 -240 182 -311 l48 -66 -56 -7 c-122
-14 -322 -99 -477 -201 -158 -104 -352 -311 -487 -520 -112 -173 -212 -402
-263 -602 -25 -102 -57 -284 -51 -290 2 -3 28 69 57 159 146 453 354 810 614
1056 204 192 468 322 655 322 72 0 79 -2 94 -25 9 -13 73 -83 143 -155 69 -72
124 -131 122 -133 -2 -1 -29 -14 -59 -29 -81 -41 -221 -150 -325 -252 -255
-254 -360 -550 -372 -1051 -4 -162 -1 -236 16 -392 12 -106 25 -203 30 -215 5
-14 11 128 14 347 5 381 16 510 55 690 42 187 119 352 231 489 112 139 389
346 461 346 19 0 200 -155 200 -171 0 -3 -11 -11 -25 -17 -14 -7 -48 -32 -75
-58 -135 -126 -272 -406 -332 -681 -31 -141 -31 -377 0 -523 47 -227 48 -225
48 105 -1 278 1 307 22 403 45 200 109 358 205 504 78 119 170 208 217 208 8
0 47 -28 85 -61 39 -34 120 -100 180 -147 61 -47 111 -86 113 -87 2 -2 -13
-24 -32 -50 -90 -118 -150 -328 -177 -624 -14 -156 -7 -288 21 -415 40 -179
95 -329 84 -229 -2 21 -11 97 -19 168 -31 281 -28 458 11 675 35 196 117 393
171 414 7 3 75 -36 151 -88 75 -51 166 -110 200 -131 73 -43 71 -30 22 -170
-66 -191 -109 -478 -95 -645 16 -196 53 -390 94 -494 6 -16 10 -31 8 -33 -3
-2 -164 -6 -358 -10 -355 -6 -524 1 -879 32 -462 42 -1033 123 -1245 176 -195
50 -565 201 -940 383 -393 192 -690 387 -985 648 -232 204 -479 543 -700 961
-196 372 -386 1040 -466 1642 -49 365 -18 1171 76 2030 6 50 12 119 15 155 2
36 9 130 14 210 6 80 15 222 21 315 6 94 12 202 15 240 27 403 27 791 1 950
-37 230 -115 443 -221 610 -19 30 -35 56 -35 58 0 4 -88 158 -122 214 l-19 32
128 132 c268 276 436 409 798 634 183 114 545 366 545 380 0 13 -390 -176
-535 -260 -261 -150 -394 -242 -585 -405 -129 -110 -313 -298 -376 -385 l-19
-26 -50 68 c-64 87 -214 243 -319 332 -107 90 -450 354 -598 460 -65 46 -118
87 -118 92 0 7 19 39 101 173 126 204 419 529 734 814 77 70 165 150 195 179
30 28 69 64 85 79 50 45 389 379 405 399 20 25 7 17 -90 -54 -482 -353 -950
-768 -1184 -1051 -105 -126 -226 -307 -281 -417 l-39 -80 -151 102 c-82 56
-201 137 -264 181 -62 43 -127 89 -145 100 -53 36 -50 29 -174 319 -65 152
-195 415 -281 568 l-71 127 16 33 c58 112 252 373 444 597 196 228 246 279
785 812 247 243 365 364 365 372 0 14 -248 -184 -514 -408 -153 -130 -494
-465 -651 -641 -181 -202 -366 -443 -456 -594 -23 -39 -43 -71 -45 -71 -2 0
-33 43 -69 95 -37 52 -72 101 -78 108 -7 6 -37 44 -66 82 -30 39 -96 120 -146
180 -50 61 -142 173 -205 250 -63 77 -124 151 -136 165 -12 14 -33 39 -47 55
-87 104 17 -108 175 -355 297 -464 697 -1128 786 -1305 139 -279 323 -822 386
-1142 54 -271 90 -639 90 -933 1 -237 3 -217 -80 -780 -13 -91 -37 -193 -115
-482 -39 -145 -152 -433 -225 -573 -132 -252 -235 -438 -268 -480 -14 -19 -15
-15 -16 50 0 79 -22 280 -45 412 -40 229 -120 490 -227 743 -181 426 -256 536
-585 861 -238 235 -329 315 -501 437 -318 228 -665 389 -1052 490 -164 43
-277 56 -434 50 l-134 -5 -6 51 c-28 238 -40 658 -27 948 21 464 72 805 207
1392 129 556 270 1001 539 1696 113 292 217 572 375 1010 227 632 245 697 221
835 -15 85 -40 134 -85 168 -59 46 -125 35 -236 -39 -93 -61 -157 -131 -350
-379 -330 -426 -672 -923 -905 -1315 -70 -118 -142 -240 -160 -270 -97 -164
-330 -612 -446 -860 l-26 -55 -7 55 c-4 30 -14 102 -23 160 -8 58 -17 121 -19
140 -2 19 -8 64 -14 100 -44 296 -55 519 -55 1080 1 547 9 706 56 1114 22 194
89 656 119 821 43 233 52 281 60 320 21 90 62 346 100 615 22 157 42 298 45
315 13 74 -19 -10 -104 -270 -74 -224 -159 -506 -204 -670 -5 -19 -31 -111
-62 -221 l-15 -52 -103 33 c-163 52 -321 87 -517 116 -119 17 -609 23 -762 10
-261 -24 -600 -91 -828 -164 -398 -128 -646 -232 -915 -383 -718 -401 -1338
-929 -1942 -1651 -154 -185 -242 -302 -374 -498 -63 -93 -153 -222 -200 -285
-200 -269 -479 -690 -667 -1005 -337 -564 -704 -1329 -884 -1840 -69 -198
-175 -532 -204 -645 -35 -137 -92 -422 -115 -580 -14 -96 -55 -255 -77 -300
-19 -38 -41 -47 -114 -49 -63 -1 -91 13 -119 63 -20 35 -24 58 -27 151 -5 143
15 292 84 635 57 282 194 869 259 1110 83 305 220 695 440 1250 179 451 263
618 498 990 425 672 890 1210 1492 1729 388 334 909 735 1273 980 240 161 964
557 1527 835 435 215 675 339 914 473 62 35 148 79 190 99 96 44 269 141 386
214 81 52 102 60 210 83 178 39 1025 207 1665 331 184 36 389 77 455 91 161
33 167 33 215 -15 77 -77 97 -152 125 -460 18 -199 45 -379 74 -492 94 -365
398 -766 714 -942 62 -35 200 -87 333 -125 325 -95 751 -83 1064 30 352 127
605 357 794 720 133 255 195 473 251 879 44 326 82 506 123 590 26 53 74 80
143 80 50 0 61 -4 86 -28z m-948 -129 c-74 -91 -86 -98 -164 -103 l-40 -2 52
-12 51 -11 -21 -27 c-19 -22 -37 -29 -117 -43 -137 -25 -131 -26 -158 23 -29
52 -53 54 -113 9 -29 -22 -56 -34 -78 -35 -22 0 -43 -10 -60 -26 -23 -22 -30
-24 -45 -13 -17 12 -17 16 -1 70 17 60 25 67 45 42 19 -23 33 -18 28 9 -5 23
-2 24 71 30 165 15 436 87 550 146 31 16 59 29 64 30 4 0 -25 -39 -64 -87z
m-1035 -72 c79 -12 101 -19 98 -31 -2 -12 -18 -14 -90 -12 -84 4 -88 5 -122
39 -32 32 -33 34 -11 28 14 -4 70 -15 125 -24z m1336 -180 c0 -197 -23 -501
-45 -587 -18 -69 -135 -311 -194 -400 -50 -75 -173 -216 -229 -264 -23 -19
-66 -55 -94 -80 -107 -92 -345 -223 -535 -295 -158 -60 -470 -66 -607 -13 -28
11 -28 12 -24 84 2 40 0 70 -3 68 -4 -2 -9 2 -12 8 -2 7 -7 -18 -11 -57 -4
-38 -8 -73 -9 -77 -3 -11 -197 91 -266 140 -143 102 -276 266 -371 457 -69
140 -75 164 -42 176 17 6 21 5 16 -3 -8 -13 -10 -13 81 25 33 14 137 57 230
95 94 39 213 91 265 116 52 25 102 46 110 46 8 0 29 -9 45 -20 17 -11 38 -20
48 -20 11 0 17 -8 17 -21 0 -16 -4 -19 -20 -14 -12 4 -20 2 -20 -6 0 -8 -13
-10 -42 -5 l-43 6 28 -21 c21 -16 27 -29 27 -60 0 -32 3 -39 20 -39 25 0 25 0
-1 -292 -24 -256 -25 -284 -20 -408 l3 -85 13 80 c7 44 16 102 20 129 l7 48
26 -24 c45 -41 129 -98 160 -109 25 -8 37 -7 69 9 43 23 84 63 106 107 l15 30
6 -25 c3 -14 11 -58 17 -98 7 -40 19 -80 26 -90 12 -15 13 -3 7 83 -10 141
-10 295 -1 330 8 32 10 33 -28 -21 -17 -24 -75 87 -90 169 -7 37 -10 67 -7 67
3 0 24 -10 48 -22 54 -27 67 -17 29 22 -21 22 -36 29 -58 27 -30 -2 -30 -1
-52 88 -13 50 -21 91 -20 93 2 2 15 -4 30 -14 20 -13 25 -23 21 -39 -4 -14 0
-28 10 -36 9 -7 20 -23 24 -35 7 -18 18 -22 78 -26 67 -5 74 -8 156 -68 55
-40 83 -66 75 -70 -11 -7 166 -120 188 -120 5 0 60 -29 123 -65 63 -36 118
-65 123 -65 32 0 -24 45 -198 161 -110 72 -203 137 -207 143 -4 6 -7 18 -7 26
0 9 4 6 9 -6 5 -12 14 -25 20 -29 15 -9 3 73 -13 93 -5 7 -7 16 -3 19 4 4 11
1 15 -6 7 -11 15 -11 37 -2 28 11 28 11 3 6 -22 -4 -28 -1 -31 19 -4 22 -3 23
26 15 17 -5 36 -15 41 -22 6 -8 35 -20 65 -27 30 -7 104 -28 163 -47 92 -29
107 -37 102 -52 -4 -14 2 -22 24 -31 32 -13 55 -6 47 15 -3 10 4 11 32 4 54
-14 206 -39 209 -35 4 3 -132 54 -197 74 -395 120 -416 129 -485 207 l-55 63
61 -19 c33 -10 75 -19 92 -19 30 0 31 0 11 15 -12 8 -47 24 -78 35 -54 21 -79
44 -34 32 21 -5 20 -3 -7 22 -17 16 -52 39 -78 53 -48 24 -49 25 -30 45 46 52
75 53 437 14 69 -8 275 12 299 29 12 8 43 15 69 15 l48 0 -55 -67 c-51 -64
-66 -93 -47 -93 10 0 134 124 157 158 13 17 27 22 63 24 l47 1 -42 4 c-24 2
-43 7 -43 11 0 4 -134 8 -298 10 -290 4 -297 4 -312 25 -38 55 -56 68 -97 74
l-42 5 21 29 c12 15 18 35 15 44 -4 9 -1 18 8 21 7 3 16 18 20 33 7 31 24 38
291 111 l151 41 49 -23 c49 -24 49 -24 47 -70 -2 -42 0 -47 26 -58 16 -6 38
-10 48 -8 27 5 22 31 -7 38 -22 6 -25 11 -22 47 3 40 2 41 -48 66 l-50 25 112
36 c62 20 124 43 138 51 14 8 33 14 43 15 15 0 17 -15 17 -169z m-1482 129
c23 -26 40 -33 107 -45 44 -8 96 -14 116 -15 34 0 39 4 58 45 21 44 22 45 67
45 26 0 59 -8 76 -17 28 -17 29 -21 24 -61 -3 -24 -8 -47 -11 -51 -2 -5 -102
-11 -222 -15 -280 -9 -302 -12 -313 -42 -5 -13 -12 -24 -15 -24 -2 0 0 12 5
26 19 48 12 110 -15 142 -29 35 -23 40 48 41 41 1 51 -3 75 -29z m1148 -26
c-41 -15 -53 -13 -41 5 3 6 23 11 43 10 l37 0 -39 -15z m-398 -72 l18 -38 -83
-29 c-46 -15 -83 -32 -83 -36 0 -17 -18 -8 -35 17 -15 23 -15 27 -1 43 10 11
26 16 43 14 20 -2 41 7 73 31 25 19 46 35 47 35 2 1 11 -16 21 -37z m-1308
-43 c0 -14 -27 -10 -33 5 -4 10 0 12 14 9 10 -3 19 -9 19 -14z m386 -14 c-3
-9 -11 -13 -16 -10 -8 5 -7 11 1 21 14 18 24 11 15 -11z m-322 -3 c10 -16 -6
-82 -20 -82 -8 0 -14 5 -14 10 0 6 -7 10 -16 10 -8 0 -12 5 -9 10 3 6 0 10 -7
10 -7 0 1 11 17 25 33 26 41 29 49 17z m56 -17 c0 -1 -9 -5 -20 -8 -12 -3 -20
0 -20 8 0 8 8 11 20 8 11 -3 20 -7 20 -8z m994 -80 l7 -30 -21 25 c-23 30 -29
74 -6 50 7 -8 16 -28 20 -45z m-847 19 c-3 -3 -12 -4 -19 -1 -8 3 -5 6 6 6 11
1 17 -2 13 -5z m347 -56 c16 -155 132 -285 305 -341 57 -18 71 -26 71 -43 0
-11 20 -47 44 -80 l45 -59 -47 -5 c-26 -3 -99 -3 -162 0 l-115 5 -115 76
c-145 95 -155 100 -104 51 27 -26 44 -53 48 -76 l7 -36 -53 0 c-90 0 -98 5
-98 61 0 48 -13 72 -24 44 -4 -12 -12 -11 -42 10 -65 44 -88 42 -204 -15
l-105 -51 -6 53 c-4 29 -8 59 -10 67 -5 17 118 61 175 62 61 1 91 12 94 35 2
15 -6 23 -31 32 -39 14 -77 16 -77 3 0 -5 17 -13 38 -19 l37 -10 -31 -1 c-27
-1 -38 7 -72 53 -34 45 -47 54 -81 60 l-41 6 15 30 c8 16 15 38 15 49 0 11 8
22 18 25 63 19 400 73 463 75 l36 1 7 -62z m-566 39 c6 3 12 -2 12 -11 0 -12
-5 -13 -30 -5 -16 6 -30 15 -30 20 0 6 7 6 18 1 9 -5 23 -7 30 -5z m1125 -22
c4 -8 2 -17 -2 -20 -5 -2 -11 4 -14 15 -6 23 8 27 16 5z m4465 -62 c22 -38 67
-114 101 -170 71 -120 75 -136 29 -129 -18 3 -77 8 -132 12 l-98 6 6 37 c3 20
14 100 23 178 9 78 20 140 24 138 3 -3 25 -35 47 -72z m-4478 -59 c0 -2 -9 -4
-21 -4 -11 0 -18 4 -14 10 5 8 35 3 35 -6z m86 -1 c3 -10 12 -30 20 -45 l15
-28 -38 0 c-21 0 -55 -3 -75 -6 -31 -5 -38 -4 -38 9 0 11 13 18 36 23 19 4 37
13 40 20 2 8 6 21 9 29 6 20 24 19 31 -2z m-213 -100 c-7 -2 -21 -2 -30 0 -10
3 -4 5 12 5 17 0 24 -2 18 -5z m700 0 c-18 -2 -48 -2 -65 0 -18 2 -4 4 32 4
36 0 50 -2 33 -4z m-660 -190 c-7 -2 -21 -2 -30 0 -10 3 -4 5 12 5 17 0 24 -2
18 -5z m-575 -143 c-7 -10 -14 -18 -15 -16 -6 6 9 36 18 36 5 0 4 -9 -3 -20z
m143 -239 c19 -25 44 -75 56 -111 12 -36 31 -72 41 -80 18 -15 18 -17 -8 -79
-15 -36 -39 -78 -52 -95 -24 -30 -26 -31 -101 -28 -63 3 -80 8 -101 27 -14 12
-27 21 -30 18 -2 -3 -11 4 -18 16 -7 12 -18 21 -25 21 -16 0 -17 59 -2 204 10
97 15 114 55 189 24 45 44 87 44 94 0 6 5 24 11 40 10 27 12 25 54 -71 23 -54
58 -119 76 -145z m414 209 c18 -7 16 -10 -18 -24 -49 -22 -64 -17 -37 12 23
24 25 25 55 12z m-615 -57 c0 -5 -5 -15 -10 -23 -8 -12 -10 -11 -10 8 0 12 5
22 10 22 6 0 10 -3 10 -7z m588 -44 c-1 -40 -6 -41 -51 -5 -29 23 -14 54 23
48 27 -4 30 -7 28 -43z m-398 6 c0 -5 -5 -3 -10 5 -5 8 -10 20 -10 25 0 6 5 3
10 -5 5 -8 10 -19 10 -25z m-4165 -815 c50 -5 135 -21 190 -36 55 -14 116 -30
136 -35 43 -10 181 -61 224 -82 17 -8 59 -27 93 -43 62 -27 64 -28 57 -58 -3
-17 -15 -83 -27 -146 -100 -573 -138 -1187 -108 -1758 10 -187 38 -511 45
-523 2 -3 11 -77 20 -165 27 -284 59 -506 100 -699 13 -66 25 -126 25 -132 0
-9 -17 -13 -53 -13 -29 0 -76 -6 -103 -14 -27 -8 -80 -17 -119 -21 -38 -3
-146 -24 -240 -45 -93 -22 -194 -41 -224 -42 l-54 -3 -37 107 c-83 239 -174
600 -225 898 -9 52 -20 118 -25 145 -11 59 -34 265 -52 455 -16 173 -16 764 0
975 21 266 50 541 77 719 28 184 27 217 -6 176 -25 -32 -75 -138 -88 -187 -6
-21 -26 -117 -45 -213 -31 -156 -43 -227 -77 -460 -38 -257 -55 -688 -40
-1010 23 -501 100 -970 229 -1395 4 -14 -12 -4 -54 31 -76 65 -284 218 -349
256 -27 16 -57 33 -65 38 -59 36 -144 62 -290 90 -63 12 -119 25 -123 30 -5 4
-3 59 3 121 12 110 125 824 135 851 3 7 20 87 39 178 54 258 83 373 153 610
57 192 160 486 208 595 7 17 30 68 50 115 73 167 167 342 247 462 50 75 52
124 7 162 -57 48 -153 24 -224 -57 -25 -29 -45 -55 -45 -59 0 -4 -39 -72 -86
-150 -360 -596 -612 -1425 -719 -2358 -13 -121 -34 -388 -35 -447 0 -33 -14
-28 -32 10 -22 46 -305 414 -357 464 -48 46 -66 52 -239 74 -62 8 -92 16 -89
23 25 65 96 237 123 301 93 212 139 311 272 575 129 256 172 358 172 407 0 25
-30 53 -57 53 -26 0 -95 -58 -121 -102 -9 -16 -40 -43 -69 -59 -117 -67 -270
-283 -437 -618 -72 -142 -166 -351 -211 -466 l-27 -70 -104 10 -103 10 -46 45
c-25 24 -45 48 -45 52 0 8 -40 46 -139 135 l-44 40 30 39 c17 21 82 109 145
194 93 125 267 351 331 430 7 8 62 76 122 150 61 74 122 153 136 176 15 22 74
90 133 150 58 60 109 120 112 132 11 40 -25 76 -77 80 -58 4 -114 -33 -210
-136 l-72 -77 53 100 c33 63 45 93 32 82 -11 -10 -94 -118 -184 -239 -309
-418 -675 -898 -717 -941 -4 -4 -29 4 -57 17 -27 13 -83 29 -124 36 -41 6 -95
16 -120 20 -25 5 -70 12 -100 16 -30 3 -82 12 -115 19 -33 7 -95 19 -137 26
-90 15 -92 4 28 135 45 49 103 114 129 144 107 122 464 483 525 530 36 28 95
74 131 103 204 162 407 305 549 388 41 24 82 48 92 54 9 5 42 24 75 42 32 17
87 48 123 67 36 20 74 40 85 45 11 5 67 32 125 61 58 28 132 63 165 77 33 13
80 35 105 47 25 13 97 41 160 64 346 122 674 195 995 221 144 12 455 12 560 1z
m14826 -596 c80 -18 246 -99 334 -163 152 -111 502 -520 690 -806 100 -153
322 -537 426 -740 235 -456 425 -947 523 -1357 219 -905 264 -1564 155 -2248
-50 -314 -111 -551 -245 -956 -165 -500 -251 -687 -487 -1064 -305 -486 -517
-737 -824 -977 -170 -132 -441 -320 -528 -365 -191 -98 -542 -190 -870 -229
-203 -23 -628 -8 -995 36 -224 27 -832 120 -1085 165 -60 11 -202 33 -314 50
-112 16 -206 31 -207 33 -1 1 20 56 47 122 28 66 63 154 79 195 24 63 228 513
368 810 96 206 182 390 222 475 15 33 57 123 92 200 79 169 107 231 163 355
23 52 58 129 77 170 19 41 56 122 82 180 l46 105 158 -3 c86 -1 281 -12 432
-23 373 -29 521 -18 823 57 232 58 398 127 532 222 100 71 305 261 375 349
111 138 212 331 307 588 24 66 54 145 67 175 54 128 177 694 196 900 14 162
12 422 -5 650 -35 458 -65 594 -260 1190 -57 173 -127 389 -155 480 -27 91
-96 298 -151 460 -224 652 -239 707 -239 855 0 128 23 143 171 109z m-11890
-190 c9 -67 -14 -229 -50 -344 -32 -106 -59 -180 -154 -420 -36 -91 -83 -217
-105 -280 -22 -63 -51 -140 -65 -170 -424 -925 -807 -2176 -941 -3072 -58
-385 -78 -651 -79 -1043 -1 -715 109 -1327 348 -1935 58 -147 240 -513 264
-530 4 -3 43 -52 86 -109 141 -185 335 -365 524 -485 94 -61 257 -146 277
-146 9 0 -39 59 -108 133 -351 377 -414 460 -609 797 -62 107 -135 233 -162
280 -61 104 -107 202 -146 315 l-30 85 23 0 c43 0 179 31 296 67 329 102 623
239 806 378 15 11 159 -83 317 -208 134 -106 432 -404 536 -536 219 -277 347
-518 470 -887 75 -225 113 -389 146 -624 9 -63 25 -157 36 -209 10 -51 19
-118 19 -149 0 -50 -4 -59 -43 -106 -24 -28 -116 -148 -204 -266 -88 -118
-189 -247 -224 -287 -68 -75 -373 -365 -393 -372 -6 -2 -47 -32 -91 -66 -231
-180 -477 -316 -717 -399 -129 -44 -387 -105 -498 -117 -61 -7 -174 -9 -270
-6 -327 11 -569 90 -859 281 -260 172 -448 374 -634 680 -156 259 -262 502
-396 907 -152 463 -202 771 -257 1604 -29 441 -10 946 52 1313 78 468 299
1452 410 1824 111 372 317 862 669 1588 237 489 299 592 860 1438 258 389 651
936 744 1036 41 44 120 98 136 93 5 -2 13 -26 16 -53z m-6885 -1343 c43 -10
115 -27 159 -36 292 -64 441 -114 432 -144 -2 -9 -48 -79 -102 -156 -53 -77
-102 -153 -109 -170 -7 -16 -51 -88 -98 -160 -628 -964 -1203 -2168 -1588
-3324 -238 -713 -329 -1126 -400 -1809 -53 -510 -80 -790 -79 -831 l0 -46 16
50 c9 28 30 106 48 174 l32 124 31 -57 c28 -48 36 -56 62 -56 16 0 41 10 57
24 26 23 28 30 29 104 1 73 21 244 44 382 5 30 14 89 20 130 29 196 128 699
169 860 11 41 29 113 40 160 12 47 32 121 46 165 13 44 38 128 55 187 37 130
141 446 205 623 26 72 53 148 60 170 55 169 340 853 479 1148 20 42 52 112 72
155 47 100 228 462 286 572 25 47 71 135 103 195 32 61 77 144 100 185 24 41
53 93 65 115 52 93 76 135 127 217 29 48 53 90 53 94 0 3 15 29 33 57 19 29
62 99 97 157 35 58 73 121 85 140 12 19 51 84 85 143 35 59 66 110 70 112 4 2
63 -50 131 -117 167 -164 164 -163 301 -173 l97 -7 -11 -27 c-11 -28 -68 -208
-100 -311 -11 -36 -28 -101 -37 -145 -10 -44 -42 -170 -70 -280 -110 -425
-164 -735 -246 -1390 -13 -110 -32 -252 -40 -315 -49 -365 -60 -468 -80 -745
-23 -316 -30 -711 -16 -920 22 -329 81 -829 127 -1065 8 -41 22 -167 31 -280
10 -113 20 -191 23 -175 4 23 10 6 22 -68 l17 -99 -35 -30 c-161 -141 -369
-241 -561 -268 -110 -16 -293 -9 -358 14 -27 10 -133 63 -235 117 -102 54
-212 109 -245 123 -137 56 -317 74 -410 43 -125 -42 -420 -233 -566 -365 -35
-32 -111 -98 -168 -147 -57 -50 -147 -127 -200 -173 -111 -95 -181 -134 -257
-140 -174 -14 -313 177 -314 431 0 132 52 658 86 862 83 496 84 633 9 791 -39
82 -81 127 -145 156 -49 22 -136 28 -208 15 -39 -7 -42 -6 -34 10 13 23 52
213 52 249 0 15 7 56 15 91 8 35 22 93 30 131 9 37 27 105 40 152 145 503 161
556 233 755 22 61 63 166 92 235 28 69 67 162 86 207 36 89 262 549 344 703
29 52 88 163 132 245 44 83 96 179 116 215 126 235 442 712 721 1090 38 52
127 181 198 285 111 166 228 322 303 405 12 14 68 79 123 145 56 66 106 123
112 127 15 11 22 10 111 -11z m19017 -381 c3 -11 1 -18 -4 -14 -5 3 -9 12 -9
20 0 20 7 17 13 -6z m-17110 -331 c20 -5 37 -14 37 -19 0 -5 6 -15 13 -22 7
-7 53 -67 103 -133 49 -66 91 -122 95 -125 3 -3 38 -49 78 -103 92 -123 104
-132 180 -124 l58 6 6 -92 c6 -86 18 -424 33 -892 4 -117 10 -191 14 -179 5
12 20 102 35 200 15 99 29 182 31 185 1 3 8 41 13 85 6 43 24 169 41 279 17
110 35 234 40 275 19 147 17 142 51 135 59 -13 176 -54 256 -89 45 -20 83 -36
86 -36 14 0 219 -121 272 -160 60 -44 162 -142 202 -195 12 -16 41 -62 65
-101 45 -77 68 -94 122 -94 31 0 35 -4 51 -47 29 -79 83 -200 155 -348 38 -77
79 -165 91 -195 49 -118 196 -401 186 -355 -3 11 -8 34 -11 50 -6 29 -5 29 14
-7 20 -36 19 -91 -1 -104 -5 -3 -9 -13 -9 -23 0 -18 -7 -44 -50 -186 -12 -38
-28 -95 -36 -125 -8 -30 -22 -80 -30 -110 -8 -30 -23 -91 -34 -135 -10 -44
-28 -120 -40 -170 -11 -49 -30 -137 -41 -195 -11 -58 -24 -114 -29 -125 -7
-16 -60 -315 -60 -339 0 -3 -11 -6 -24 -6 -59 0 -168 -53 -365 -178 -73 -46
-172 -101 -220 -122 -47 -21 -175 -81 -284 -134 -109 -53 -222 -105 -250 -117
-64 -26 -197 -92 -257 -128 -25 -15 -74 -45 -110 -66 -70 -42 -233 -159 -290
-209 -48 -42 -240 -235 -326 -326 -38 -41 -129 -129 -202 -195 -107 -98 -354
-356 -543 -568 l-35 -40 -13 389 c-24 750 -26 850 -20 999 4 83 12 319 18 525
14 477 28 799 42 970 21 272 50 557 65 645 29 174 106 570 120 615 8 25 27
104 43 175 16 72 38 164 49 205 11 41 32 118 46 170 14 52 32 118 41 145 9 28
23 75 31 105 17 66 220 689 242 744 l15 38 101 -6 c56 -4 118 -12 139 -17z
m2739 -1071 c-33 -62 -59 -121 -151 -353 -5 -11 -13 -31 -19 -45 -6 -14 -14
-36 -17 -50 -4 -14 -28 -83 -55 -155 -63 -171 -130 -372 -130 -391 0 -37 -18
-7 -34 59 -10 39 -33 117 -51 172 -18 55 -45 145 -60 200 -15 55 -53 180 -84
278 -32 98 -55 179 -52 181 3 2 29 7 56 11 102 13 442 98 500 125 62 29 87 37
118 39 16 1 13 -10 -21 -71z m4770 -2120 c29 -18 141 -91 248 -163 206 -138
243 -164 355 -244 39 -27 108 -73 153 -102 46 -28 136 -92 200 -142 275 -212
379 -320 536 -558 42 -63 109 -161 151 -219 195 -273 277 -545 279 -930 2
-243 -33 -1002 -54 -1190 -5 -52 -15 -142 -20 -200 -19 -194 -22 -203 -142
-422 -61 -112 -124 -225 -139 -253 -112 -206 -386 -718 -452 -845 -78 -151
-299 -569 -360 -680 -16 -30 -115 -224 -220 -430 -104 -206 -191 -376 -193
-378 -3 -5 -44 60 -229 363 -278 456 -410 645 -758 1078 -235 293 -299 368
-465 539 l-124 127 44 47 c49 53 194 234 300 374 39 52 106 137 147 189 42 52
95 119 119 148 24 30 81 116 126 191 46 75 102 168 126 206 65 106 344 767
382 906 11 41 26 95 34 120 7 25 16 61 19 80 3 19 12 60 20 90 13 47 31 201
75 620 12 122 4 499 -16 708 -28 304 -99 667 -179 917 -14 44 -25 81 -25 82 0
7 14 1 62 -29z m-3302 -833 c196 -37 479 -137 691 -244 61 -31 111 -61 111
-66 0 -16 -262 -159 -394 -215 -230 -99 -451 -155 -579 -148 l-54 3 -22 90
c-13 50 -46 202 -74 339 -41 202 -48 251 -37 258 19 13 257 2 358 -17z m-3703
-1080 c130 -62 375 -221 533 -345 123 -98 289 -256 369 -355 72 -88 163 -217
157 -223 -3 -2 -54 40 -114 94 -143 130 -157 143 -292 255 -154 127 -431 337
-503 379 -50 30 -237 178 -292 231 -19 19 -19 19 4 19 13 0 75 -25 138 -55z
m8049 -4184 c-78 -263 -213 -545 -381 -793 l-34 -51 58 -66 c32 -36 139 -169
237 -296 98 -126 269 -337 379 -469 110 -131 247 -295 304 -365 57 -69 106
-125 108 -124 3 1 36 26 74 57 68 54 129 80 171 74 17 -2 -6 -29 -116 -138
-75 -74 -140 -136 -144 -137 -4 -1 -60 58 -125 130 -64 73 -137 152 -160 177
-399 422 -657 730 -863 1032 l-53 77 85 146 c46 81 84 149 84 150 0 2 26 50
59 107 32 57 75 135 96 173 36 66 99 180 180 325 19 36 43 80 53 98 29 58 24
17 -12 -107z m-4081 25 c44 -45 200 -208 347 -362 559 -586 1022 -1021 1653
-1555 526 -444 729 -580 1818 -1216 936 -546 1224 -723 1381 -853 81 -66 201
-188 193 -196 -6 -6 -312 113 -385 150 -26 13 -65 26 -86 30 -42 8 -489 232
-816 409 -204 110 -262 146 -505 307 -121 80 -275 182 -342 226 -187 120 -714
470 -839 556 -418 286 -891 654 -1174 914 -25 22 -90 81 -145 131 -220 199
-422 406 -733 753 -160 178 -507 589 -625 738 l-48 62 113 -6 113 -6 80 -82z
m12989 -1089 c136 -59 201 -192 181 -373 l-7 -65 -49 46 c-61 57 -105 76 -180
77 -138 2 -293 -136 -464 -413 -154 -249 -338 -695 -425 -1029 -12 -47 -28
-107 -35 -135 -26 -98 -61 -261 -79 -370 -30 -186 -36 -237 -47 -446 -23 -421
33 -705 158 -793 63 -44 117 -41 179 10 l48 38 -20 -33 c-94 -164 -270 -241
-524 -228 -139 7 -247 33 -356 87 -104 51 -177 111 -255 211 -74 94 -109 152
-218 365 -44 88 -106 192 -137 233 -102 133 -189 356 -219 560 -19 131 -22
343 -6 457 36 249 109 464 158 464 23 0 221 101 292 149 108 73 228 181 506
451 149 144 315 300 370 347 245 207 514 351 745 399 93 19 332 13 384 -9z m4
-461 c42 -22 69 -56 101 -128 39 -84 48 -57 -164 -493 -201 -413 -263 -562
-329 -785 -34 -116 -43 -164 -71 -390 -13 -107 -31 -249 -39 -315 -9 -66 -22
-178 -31 -250 -20 -160 -42 -273 -60 -301 -20 -31 -198 -226 -234 -257 -17
-14 -38 -24 -46 -21 -22 9 -63 100 -81 179 -21 94 -30 468 -15 635 48 525 206
1090 441 1575 109 227 298 487 395 547 36 21 96 23 133 4z m-4277 -2796 c-5
-307 -8 -349 -15 -265 -11 121 5 650 19 633 1 -2 -1 -167 -4 -368z"/>
<path d="M21443 23975 l-22 -15 19 -43 c11 -23 20 -54 20 -69 0 -25 4 -28 35
-28 34 0 35 1 34 38 0 46 -32 126 -50 130 -8 1 -24 -4 -36 -13z"/>
<path d="M20783 23845 c-9 -24 3 -145 16 -158 7 -7 18 -7 36 1 25 11 25 13 19
84 -4 40 -7 73 -8 74 0 1 -13 4 -29 8 -20 5 -29 2 -34 -9z"/>
<path d="M21340 23797 c-60 -16 -75 -45 -59 -116 12 -56 18 -61 37 -31 7 12
23 20 41 20 28 0 61 26 61 48 0 7 -6 21 -12 32 -10 15 -10 22 0 32 30 30 8 34
-68 15z"/>
<path d="M20976 23727 c-48 -12 -48 -12 -27 -31 14 -13 19 -26 15 -42 -9 -33
31 -57 83 -48 26 4 43 2 47 -5 15 -23 27 -10 21 22 -14 68 -26 94 -51 106 -29
13 -24 13 -88 -2z"/>
<path d="M18505 19485 c25 -22 215 -115 234 -115 28 0 -8 26 -101 72 -51 26
-106 50 -123 53 -29 6 -29 6 -10 -10z"/>
<path d="M24860 5766 c-298 -43 -571 -152 -834 -333 -182 -125 -450 -333 -431
-333 10 0 216 117 495 280 245 144 488 239 716 281 157 29 448 31 599 5 271
-47 498 -131 629 -231 64 -48 44 -14 -32 56 -112 103 -336 203 -572 256 -143
32 -417 41 -570 19z"/>
<path d="M20500 19206 c0 -9 7 -16 16 -16 17 0 14 22 -4 28 -7 2 -12 -3 -12
-12z"/>
<path d="M19706 18721 c9 -9 170 -79 237 -102 28 -10 37 -19 37 -36 0 -24 99
-105 215 -177 l60 -37 -60 57 c-33 32 -87 77 -120 102 -82 60 -89 76 -23 50
95 -36 228 -76 222 -67 -3 5 -41 26 -84 46 -62 29 -77 40 -68 50 16 20 33 17
171 -32 129 -45 167 -46 78 0 -82 41 -181 75 -221 75 -30 0 -39 -5 -49 -26 -8
-19 -16 -24 -29 -19 -24 11 -364 125 -371 125 -3 0 -1 -4 5 -9z"/>
<path d="M18788 18534 c-27 -20 -48 -40 -48 -45 0 -21 50 -6 99 31 70 52 69
50 30 50 -23 -1 -49 -12 -81 -36z"/>
<path d="M18575 18373 c-46 -34 -47 -37 -27 -46 17 -8 30 -2 71 28 28 20 51
41 51 46 0 21 -51 6 -95 -28z"/>
<path d="M18970 18313 c0 -10 -3 -35 -7 -56 -6 -36 -4 -39 18 -35 19 2 25 11
31 47 9 50 5 61 -23 61 -11 0 -19 -7 -19 -17z"/>
<path d="M18850 18035 c0 -30 96 -233 106 -223 5 6 -45 166 -62 201 -12 22
-44 39 -44 22z"/>
<path d="M18980 17793 c0 -14 -2 -15 -9 -5 -5 9 -8 4 -7 -15 1 -41 23 -37 24
4 1 18 -1 33 -3 33 -3 0 -5 -8 -5 -17z"/>
<path d="M19170 18288 c0 -23 65 -109 87 -114 28 -8 55 -2 60 13 5 13 -115
113 -134 113 -7 0 -13 -6 -13 -12z"/>
<path d="M19112 18208 c2 -6 10 -14 16 -16 7 -2 10 2 6 12 -7 18 -28 22 -22 4z"/>
</g>
</svg>
